<svg xmlns="http://www.w3.org/2000/svg" viewBox="0 0 93.5 93.5"><defs><style>.cls-1,.cls-2,.cls-3{stroke:#fff;}.cls-1,.cls-3{stroke-miterlimit:10;}.cls-2,.cls-3{fill:none;stroke-width:2px;}.cls-2{stroke-linecap:round;stroke-linejoin:round;}</style></defs><g id="Layer_2" data-name="Layer 2"><g id="Layer_1-2" data-name="Layer 1"><circle class="cls-1" cx="46.75" cy="46.75" r="46.25"/><path class="cls-2" d="M42.18,19.39,19.55,57.6A5.45,5.45,0,0,0,21.5,65a5.37,5.37,0,0,0,2.62.72H69.38a5.38,5.38,0,0,0,5.29-5.46A5.48,5.48,0,0,0,74,57.6L51.32,19.39A5.32,5.32,0,0,0,44,17.57,5.49,5.49,0,0,0,42.18,19.39Z"/><path class="cls-3" d="M46.15,31.6h6.61s.38,0,.21.35c-.76,1.42-3.7,5.7-4.26,7.41-.08.23,4.46.15,6.12.32.35,0,0,.53-.19.68C51,44.53,47.91,48.73,44.22,52.9l3.14,3-7.25,1-.4.12-.08-.4-1.1-8,2.58,2.09L42.36,49,46,43.87s.18-.5-.1-.53a42.4,42.4,0,0,1-4.45-.58C42.89,38.93,46,31.6,46.15,31.6Z"/></g></g></svg>