<svg xmlns="http://www.w3.org/2000/svg" viewBox="0 0 93.5 93.5"><defs><style>.cls-1{stroke:#fff;stroke-miterlimit:10;}.cls-2{fill:#fff;}</style></defs><g id="Layer_2" data-name="Layer 2"><g id="Layer_1-2" data-name="Layer 1"><circle class="cls-1" cx="46.75" cy="46.75" r="46.25"/><path class="cls-2" d="M46.75,23.78a1,1,0,0,0-.62.2l-23,18a1,1,0,0,0-.17,1.4,1,1,0,0,0,1.41.17l1.38-1.07V68.72a1,1,0,0,0,1,1h14v-18h12v18h14a1,1,0,0,0,1-1V42.44l1.38,1.07a1,1,0,0,0,.62.21,1,1,0,0,0,.62-1.78l-23-18A1,1,0,0,0,46.75,23.78Zm10,3.94v1.06l6,4.68V27.72Z"/></g></g></svg>