<svg xmlns="http://www.w3.org/2000/svg" viewBox="0 0 93.5 93.5"><defs><style>.cls-1{stroke:#fff;stroke-miterlimit:10;}.cls-2{fill:#fff;}</style></defs><g id="Layer_2" data-name="Layer 2"><g id="Layer_1-2" data-name="Layer 1"><circle class="cls-1" cx="46.75" cy="46.75" r="46.25"/><path class="cls-2" d="M41.75,24.75a3,3,0,0,0-3,3v3h-14a3,3,0,0,0-3,3v13a3,3,0,0,0,3,3h44a3,3,0,0,0,3-3v-13a3,3,0,0,0-3-3h-14v-3a3,3,0,0,0-3-3Zm0,2h10a1,1,0,0,1,1,1v3h-12v-3A1,1,0,0,1,41.75,26.75Zm5,17a2,2,0,1,1-2,2A2,2,0,0,1,46.75,43.75Zm-25,5v17a3,3,0,0,0,3,3h44a3,3,0,0,0,3-3v-17a3,3,0,0,1-3,3h-44A3,3,0,0,1,21.75,48.75Z"/></g></g></svg>